<svg width="91" height="14" viewBox="0 0 91 14" fill="none" xmlns="http://www.w3.org/2000/svg">
<path d="M8.342 0.364V2.83H3.194V5.494H7.046V7.888H3.194V13H0.116V0.364H8.342ZM14.5318 13.126C13.6078 13.126 12.7798 12.976 12.0478 12.676C11.3158 12.376 10.7278 11.932 10.2838 11.344C9.85175 10.756 9.62375 10.048 9.59975 9.22H12.8758C12.9238 9.688 13.0858 10.048 13.3618 10.3C13.6378 10.54 13.9978 10.66 14.4418 10.66C14.8978 10.66 15.2578 10.558 15.5218 10.354C15.7858 10.138 15.9178 9.844 15.9178 9.472C15.9178 9.16 15.8098 8.902 15.5938 8.698C15.3898 8.494 15.1318 8.326 14.8198 8.194C14.5198 8.062 14.0878 7.912 13.5238 7.744C12.7078 7.492 12.0418 7.24 11.5258 6.988C11.0098 6.736 10.5658 6.364 10.1938 5.872C9.82175 5.38 9.63575 4.738 9.63575 3.946C9.63575 2.77 10.0618 1.852 10.9138 1.192C11.7658 0.52 12.8758 0.184 14.2438 0.184C15.6358 0.184 16.7578 0.52 17.6098 1.192C18.4618 1.852 18.9178 2.776 18.9778 3.964H15.6478C15.6238 3.556 15.4738 3.238 15.1978 3.01C14.9218 2.77 14.5678 2.65 14.1357 2.65C13.7638 2.65 13.4638 2.752 13.2358 2.956C13.0078 3.148 12.8938 3.43 12.8938 3.802C12.8938 4.21 13.0858 4.528 13.4697 4.756C13.8538 4.984 14.4538 5.23 15.2698 5.494C16.0858 5.77 16.7458 6.034 17.2498 6.286C17.7658 6.538 18.2098 6.904 18.5818 7.384C18.9538 7.864 19.1398 8.482 19.1398 9.238C19.1398 9.958 18.9538 10.612 18.5818 11.2C18.2218 11.788 17.6938 12.256 16.9978 12.604C16.3018 12.952 15.4798 13.126 14.5318 13.126ZM38.422 0.364L35.128 13H31.402L29.386 4.684L27.298 13H23.572L20.368 0.364H23.662L25.48 9.562L27.73 0.364H31.114L33.274 9.562L35.11 0.364H38.422Z" fill="url(#paint0_linear_1_535)"/>
<path d="M48.7187 13.126C47.8427 13.126 47.0507 12.976 46.3427 12.676C45.6467 12.376 45.0947 11.944 44.6867 11.38C44.2787 10.816 44.0687 10.15 44.0567 9.382H46.7567C46.7927 9.898 46.9727 10.306 47.2967 10.606C47.6327 10.906 48.0887 11.056 48.6647 11.056C49.2527 11.056 49.7147 10.918 50.0507 10.642C50.3867 10.354 50.5547 9.982 50.5547 9.526C50.5547 9.154 50.4407 8.848 50.2127 8.608C49.9847 8.368 49.6967 8.182 49.3487 8.05C49.0127 7.906 48.5447 7.75 47.9447 7.582C47.1287 7.342 46.4627 7.108 45.9467 6.88C45.4427 6.64 45.0047 6.286 44.6327 5.818C44.2727 5.338 44.0927 4.702 44.0927 3.91C44.0927 3.166 44.2787 2.518 44.6507 1.966C45.0227 1.414 45.5447 0.993999 46.2167 0.705999C46.8887 0.406 47.6567 0.256 48.5207 0.256C49.8167 0.256 50.8667 0.574 51.6707 1.21C52.4867 1.834 52.9367 2.71 53.0207 3.838H50.2487C50.2247 3.406 50.0387 3.052 49.6907 2.776C49.3547 2.488 48.9047 2.344 48.3407 2.344C47.8487 2.344 47.4527 2.47 47.1527 2.722C46.8647 2.974 46.7207 3.34 46.7207 3.82C46.7207 4.156 46.8287 4.438 47.0447 4.666C47.2727 4.882 47.5487 5.062 47.8727 5.206C48.2087 5.338 48.6767 5.494 49.2767 5.674C50.0927 5.914 50.7587 6.154 51.2747 6.394C51.7907 6.634 52.2347 6.994 52.6067 7.474C52.9787 7.954 53.1647 8.584 53.1647 9.364C53.1647 10.036 52.9907 10.66 52.6427 11.236C52.2947 11.812 51.7847 12.274 51.1127 12.622C50.4407 12.958 49.6427 13.126 48.7187 13.126ZM58.2834 5.098V9.922C58.2834 10.258 58.3614 10.504 58.5174 10.66C58.6854 10.804 58.9614 10.876 59.3454 10.876H60.5154V13H58.9314C56.8074 13 55.7454 11.968 55.7454 9.904V5.098H54.5574V3.028H55.7454V0.561999H58.2834V3.028H60.5154V5.098H58.2834ZM66.7559 13.162C65.7959 13.162 64.9319 12.952 64.1639 12.532C63.3959 12.1 62.7899 11.494 62.3459 10.714C61.9139 9.934 61.6979 9.034 61.6979 8.014C61.6979 6.994 61.9199 6.094 62.3639 5.314C62.8199 4.534 63.4379 3.934 64.2179 3.514C64.9979 3.082 65.8679 2.866 66.8279 2.866C67.7879 2.866 68.6579 3.082 69.4379 3.514C70.2179 3.934 70.8299 4.534 71.2739 5.314C71.7299 6.094 71.9579 6.994 71.9579 8.014C71.9579 9.034 71.7239 9.934 71.2559 10.714C70.7999 11.494 70.1759 12.1 69.3839 12.532C68.6039 12.952 67.7279 13.162 66.7559 13.162ZM66.7559 10.966C67.2119 10.966 67.6379 10.858 68.0339 10.642C68.4419 10.414 68.7659 10.078 69.0059 9.634C69.2459 9.19 69.3659 8.65 69.3659 8.014C69.3659 7.066 69.1139 6.34 68.6099 5.836C68.1179 5.32 67.5119 5.062 66.7919 5.062C66.0719 5.062 65.4659 5.32 64.9739 5.836C64.4939 6.34 64.2539 7.066 64.2539 8.014C64.2539 8.962 64.4879 9.694 64.9559 10.21C65.4359 10.714 66.0359 10.966 66.7559 10.966ZM76.3265 4.576C76.6505 4.048 77.0705 3.634 77.5865 3.334C78.1145 3.034 78.7145 2.884 79.3865 2.884V5.53H78.7205C77.9285 5.53 77.3285 5.716 76.9205 6.088C76.5245 6.46 76.3265 7.108 76.3265 8.032V13H73.8065V3.028H76.3265V4.576ZM90.3538 7.798C90.3538 8.158 90.3298 8.482 90.2818 8.77H82.9918C83.0518 9.49 83.3038 10.054 83.7478 10.462C84.1918 10.87 84.7378 11.074 85.3858 11.074C86.3218 11.074 86.9878 10.672 87.3838 9.868H90.1018C89.8138 10.828 89.2618 11.62 88.4458 12.244C87.6298 12.856 86.6278 13.162 85.4398 13.162C84.4798 13.162 83.6158 12.952 82.8478 12.532C82.0918 12.1 81.4978 11.494 81.0658 10.714C80.6458 9.934 80.4358 9.034 80.4358 8.014C80.4358 6.982 80.6458 6.076 81.0658 5.296C81.4858 4.516 82.0738 3.916 82.8298 3.496C83.5858 3.076 84.4558 2.866 85.4398 2.866C86.3878 2.866 87.2338 3.07 87.9778 3.478C88.7338 3.886 89.3158 4.468 89.7238 5.224C90.1438 5.968 90.3538 6.826 90.3538 7.798ZM87.7438 7.078C87.7318 6.43 87.4978 5.914 87.0418 5.53C86.5858 5.134 86.0278 4.936 85.3678 4.936C84.7438 4.936 84.2158 5.128 83.7838 5.512C83.3638 5.884 83.1058 6.406 83.0098 7.078H87.7438Z" fill="white"/>
<defs>
<linearGradient id="paint0_linear_1_535" x1="-1" y1="6.5" x2="34.9839" y2="6.5" gradientUnits="userSpaceOnUse">
<stop stop-color="#5033C3"/>
<stop offset="1" stop-color="#8162FF"/>
</linearGradient>
</defs>
</svg>
